<?xml version="1.0" encoding="UTF-8" standalone="no"?>
<!-- Created with Inkscape (http://www.inkscape.org/) -->

<svg
   width="512"
   height="512"
   viewBox="0 0 511.99999 511.99999"
   id="svg2"
   version="1.1"
   inkscape:version="1.4.2 (2aeb623e1d, 2025-05-12)"
   sodipodi:docname="codedown-monochrome.svg"
   xmlns:inkscape="http://www.inkscape.org/namespaces/inkscape"
   xmlns:sodipodi="http://sodipodi.sourceforge.net/DTD/sodipodi-0.dtd"
   xmlns="http://www.w3.org/2000/svg"
   xmlns:svg="http://www.w3.org/2000/svg"
   xmlns:rdf="http://www.w3.org/1999/02/22-rdf-syntax-ns#"
   xmlns:cc="http://creativecommons.org/ns#"
   xmlns:dc="http://purl.org/dc/elements/1.1/">
  <defs
     id="defs4">
    <inkscape:perspective
       sodipodi:type="inkscape:persp3d"
       inkscape:vp_x="0 : 256 : 1"
       inkscape:vp_y="0 : 1000 : 0"
       inkscape:vp_z="511.99999 : 256 : 1"
       inkscape:persp3d-origin="256 : 170.66666 : 1"
       id="perspective3377" />
  </defs>
  <sodipodi:namedview
     id="base"
     pagecolor="#ffffff"
     bordercolor="#666666"
     borderopacity="1.0"
     inkscape:pageopacity="0.0"
     inkscape:pageshadow="2"
     inkscape:zoom="1.4"
     inkscape:cx="250.71429"
     inkscape:cy="160.71429"
     inkscape:document-units="px"
     inkscape:current-layer="layer1"
     showgrid="false"
     units="px"
     showborder="true"
     borderlayer="false"
     inkscape:showpageshadow="false"
     inkscape:window-width="1920"
     inkscape:window-height="1131"
     inkscape:window-x="0"
     inkscape:window-y="32"
     inkscape:window-maximized="1"
     inkscape:snap-nodes="true"
     inkscape:pagecheckerboard="0"
     inkscape:deskcolor="#d1d1d1" />
  <metadata
     id="metadata7">
    <rdf:RDF>
      <cc:Work
         rdf:about="">
        <dc:format>image/svg+xml</dc:format>
        <dc:type
           rdf:resource="http://purl.org/dc/dcmitype/StillImage" />
      </cc:Work>
    </rdf:RDF>
  </metadata>
  <g
     inkscape:label="C"
     inkscape:groupmode="layer"
     id="layer1"
     transform="translate(0,-540.36188)"
     style="display:inline">
    <g
       id="g3500"
       transform="matrix(1.0915909,0,0,1.1023104,0.16872564,-67.220124)"
       style="stroke:#000000;stroke-opacity:1;fill:#000000;fill-opacity:1">
      <path
         inkscape:connector-curvature="0"
         id="path3416"
         d="M 195,588.42906 A 195,195 0 0 0 0,783.42905 a 195,195 0 0 0 195,195 l 0,-94.49609 a 100.50509,100.50509 0 0 1 -10.0332,-0.50196 100.50509,100.50509 0 0 1 -9.9336,-1.5 100.50509,100.50509 0 0 1 -9.73437,-2.48632 100.50509,100.50509 0 0 1 -9.4375,-3.44532 100.50509,100.50509 0 0 1 -9.04688,-4.36914 100.50509,100.50509 0 0 1 -8.56445,-5.25195 100.50509,100.50509 0 0 1 -7.99805,-6.08008 100.50509,100.50509 0 0 1 -7.34961,-6.84765 100.50509,100.50509 0 0 1 -6.63086,-7.54688 100.50509,100.50509 0 0 1 -5.84375,-8.17187 100.50509,100.50509 0 0 1 -4.99804,-8.71485 100.50509,100.50509 0 0 1 -4.10352,-9.16992 100.50509,100.50509 0 0 1 -3.167967,-9.5332 100.50509,100.50509 0 0 1 -2.201172,-9.80274 100.50509,100.50509 0 0 1 -1.210937,-9.97265 100.50509,100.50509 0 0 1 -0.251953,-7.10938 100.50509,100.50509 0 0 1 0.501953,-10.03515 100.50509,100.50509 0 0 1 1.501953,-9.9336 100.50509,100.50509 0 0 1 2.486328,-9.73242 100.50509,100.50509 0 0 1 3.443355,-9.4375 100.50509,100.50509 0 0 1 4.3711,-9.04688 100.50509,100.50509 0 0 1 5.25,-8.56445 100.50509,100.50509 0 0 1 6.08008,-7.99805 100.50509,100.50509 0 0 1 6.84765,-7.3496 100.50509,100.50509 0 0 1 7.54883,-6.63086 100.50509,100.50509 0 0 1 8.17188,-5.84375 100.50509,100.50509 0 0 1 8.71484,-5 100.50509,100.50509 0 0 1 9.16992,-4.10352 100.50509,100.50509 0 0 1 9.5332,-3.16797 100.50509,100.50509 0 0 1 9.80274,-2.19922 100.50509,100.50509 0 0 1 9.97265,-1.21093 A 100.50509,100.50509 0 0 1 195,682.92319 l 0,-94.49413 z"
         clip-path="none"
         style="fill:#000000;stroke:#000000;stroke-opacity:1;fill-opacity:1" />
      <path
         id="path3416-6"
         d="m 273.73105,588.42905 a 195,195 0 0 1 195,195 195,195 0 0 1 -195,195.00001 l 0,-94.4961 a 100.50509,100.50509 0 0 0 10.0332,-0.50196 100.50509,100.50509 0 0 0 9.9336,-1.5 100.50509,100.50509 0 0 0 9.73437,-2.48632 100.50509,100.50509 0 0 0 9.4375,-3.44532 100.50509,100.50509 0 0 0 9.04688,-4.36914 100.50509,100.50509 0 0 0 8.56445,-5.25195 100.50509,100.50509 0 0 0 7.99805,-6.08008 100.50509,100.50509 0 0 0 7.34961,-6.84765 100.50509,100.50509 0 0 0 6.63086,-7.54688 100.50509,100.50509 0 0 0 5.84375,-8.17187 100.50509,100.50509 0 0 0 4.99804,-8.71485 100.50509,100.50509 0 0 0 4.10352,-9.16992 100.50509,100.50509 0 0 0 3.16797,-9.5332 100.50509,100.50509 0 0 0 2.20117,-9.80274 100.50509,100.50509 0 0 0 1.21094,-9.97265 100.50509,100.50509 0 0 0 0.25195,-7.10938 100.50509,100.50509 0 0 0 -0.50195,-10.03515 100.50509,100.50509 0 0 0 -1.50196,-9.9336 100.50509,100.50509 0 0 0 -2.48633,-9.73242 100.50509,100.50509 0 0 0 -3.44335,-9.4375 100.50509,100.50509 0 0 0 -4.3711,-9.04688 100.50509,100.50509 0 0 0 -5.25,-8.56445 100.50509,100.50509 0 0 0 -6.08008,-7.99805 100.50509,100.50509 0 0 0 -6.84765,-7.3496 100.50509,100.50509 0 0 0 -7.54883,-6.63086 100.50509,100.50509 0 0 0 -8.17188,-5.84375 100.50509,100.50509 0 0 0 -8.71484,-5 100.50509,100.50509 0 0 0 -9.16992,-4.10352 100.50509,100.50509 0 0 0 -9.5332,-3.16797 100.50509,100.50509 0 0 0 -9.80274,-2.19922 100.50509,100.50509 0 0 0 -9.97265,-1.21093 100.50509,100.50509 0 0 0 -7.10938,-0.25196 l 0,-94.49414 z"
         clip-path="none"
         style="display:inline;fill:#000000;stroke:#000000;stroke-opacity:1;fill-opacity:1"
         inkscape:connector-curvature="0" />
      <rect
         y="588.42908"
         x="200.77795"
         height="390"
         width="67.175148"
         id="rect3498"
         style="fill:#000000;stroke:#000000;stroke-opacity:1;fill-opacity:1" />
    </g>
  </g>
  <g
     inkscape:groupmode="layer"
     id="layer2"
     inkscape:label="D"
     style="display:none"
     sodipodi:insensitive="true">
    <path
       transform="translate(0,-540.36188)"
       style="display:inline;fill:#88aa00"
       id="path3416-3"
       sodipodi:type="arc"
       sodipodi:cx="405.2175"
       sodipodi:cy="784.49609"
       sodipodi:rx="156.96158"
       sodipodi:ry="170.32816"
       sodipodi:start="4.7123889"
       sodipodi:end="1.5707963"
       d="m 405.21749,614.16794 a 156.96158,170.32816 0 0 1 135.93272,85.16407 156.96158,170.32816 0 0 1 10e-6,170.32815 156.96158,170.32816 0 0 1 -135.93272,85.16409"
       sodipodi:open="true" />
    <rect
       transform="translate(0,-540.36188)"
       style="display:inline;fill:#88aa00"
       id="rect3449"
       width="78.286819"
       height="340.92648"
       x="309.10669"
       y="610.92523" />
  </g>
</svg>
