<?xml version="1.0" encoding="UTF-8" standalone="no"?>
<!-- Created with Inkscape (http://www.inkscape.org/) -->

<svg
   width="178mm"
   height="178mm"
   viewBox="0 0 178 178"
   version="1.1"
   id="svg1"
   xml:space="preserve"
   inkscape:version="1.4.2 (2aeb623e1d, 2025-05-12)"
   sodipodi:docname="progress.svg"
   xmlns:inkscape="http://www.inkscape.org/namespaces/inkscape"
   xmlns:sodipodi="http://sodipodi.sourceforge.net/DTD/sodipodi-0.dtd"
   xmlns="http://www.w3.org/2000/svg"
   xmlns:svg="http://www.w3.org/2000/svg"><sodipodi:namedview
     id="namedview1"
     pagecolor="#ffffff"
     bordercolor="#666666"
     borderopacity="1.0"
     inkscape:showpageshadow="2"
     inkscape:pageopacity="0.0"
     inkscape:pagecheckerboard="0"
     inkscape:deskcolor="#d1d1d1"
     inkscape:document-units="mm"
     inkscape:zoom="0.80098407"
     inkscape:cx="332.71573"
     inkscape:cy="369.54542"
     inkscape:window-width="1920"
     inkscape:window-height="1131"
     inkscape:window-x="0"
     inkscape:window-y="32"
     inkscape:window-maximized="1"
     inkscape:current-layer="layer1" /><defs
     id="defs1" /><g
     inkscape:label="Layer 1"
     inkscape:groupmode="layer"
     id="layer1"><path
       id="path1"
       style="fill:#000000;stroke:#000000;stroke-width:1.9807;stroke-dasharray:none;stroke-opacity:1;fill-opacity:1"
       d="M 11.685075 23.51226 L 11.685075 26.70638 C 11.685075 29.639973 12.597799 36.071405 13.406934 38.838973 C 13.721175 39.913781 15.916219 39.98774 47.505627 39.98774 L 81.268424 39.98774 L 81.268424 43.270227 L 81.268424 46.552197 L 49.082275 46.552197 C 22.972407 46.552197 16.832964 46.716567 16.562297 47.421912 C 16.114234 48.589557 18.389493 53.77382 21.723739 59.181917 L 24.451221 63.606453 L 52.696008 63.776986 L 80.940279 63.948035 L 81.140267 67.066191 L 81.340255 70.184347 L 54.085071 70.184347 C 28.794517 70.184347 26.786415 70.26716 26.227856 71.333114 C 25.896784 71.964954 24.966808 74.993029 24.161316 78.061902 C 22.313346 85.102584 21.624755 100.63098 22.829614 108.09986 C 25.603937 125.29781 36.169425 142.90537 49.916333 153.23923 L 49.91685 153.23923 C 52.067665 154.856 54.169199 156.1791 54.586849 156.1791 C 55.004537 156.1791 64.649377 146.85675 76.020166 135.46305 C 89.821143 121.63421 98.286376 113.67451 101.48269 111.52032 C 112.53598 104.07085 125.92713 103.12891 138.11095 108.94374 C 144.34445 111.91876 151.375 118.78767 154.58385 125.03836 C 155.96083 127.72067 157.45081 129.91717 157.89476 129.91817 C 159.61478 129.92417 163.94231 118.83016 165.61418 110.1292 C 167.00023 102.91821 166.99686 89.291309 165.60746 82.059591 C 160.85369 57.31703 142.09484 35.749849 118.06876 27.404012 C 108.18934 23.972171 109.1044 24.028319 58.785042 23.761857 L 11.685075 23.51226 z M 12.998173 24.887887 L 55.831217 24.893571 C 90.158694 24.896671 99.935225 25.088692 105.06542 25.861987 C 129.73022 29.579799 150.8453 46.449482 160.56178 70.200366 C 166.81219 85.478833 166.8395 106.25628 160.62947 121.8892 C 159.52854 124.66059 158.48327 127.16178 158.30662 127.44752 C 158.13006 127.73324 157.04484 126.1229 155.89539 123.86892 C 153.45296 119.07946 146.68487 111.9171 142.06833 109.23674 C 128.21449 101.19316 111.75126 101.98618 98.775883 111.32189 C 96.909302 112.66491 86.210518 122.86405 75.00059 133.98665 L 75.00059 133.98459 C 63.790636 145.10718 54.337631 154.2077 53.99412 154.20764 C 52.427693 154.20747 42.28185 144.56016 38.34753 139.33 C 30.73208 129.20632 25.989417 118.34662 24.138578 106.794 C 22.569347 96.99914 24.398897 78.490663 27.510982 72.675667 C 28.103519 71.568399 29.833711 71.495378 55.391968 71.495378 L 82.640951 71.495378 L 82.447164 67.064124 L 82.253377 62.633386 L 53.944511 62.462337 L 25.635645 62.291288 L 23.976314 59.783431 C 23.063536 58.404108 21.250083 55.157807 19.946586 52.569401 L 17.576705 47.863228 L 50.109086 47.863228 L 82.640951 47.863228 L 82.447164 43.432491 L 82.253377 39.001237 L 48.652844 38.831222 C 17.369513 38.672879 15.028912 38.582674 14.717965 37.51864 C 14.074559 35.316952 12.998173 28.56823 12.998173 26.736869 L 12.998173 24.887887 z M 13.978992 25.833049 L 14.210502 27.78125 C 14.646141 31.442501 15.657802 36.600192 16.008842 36.951233 C 16.416657 37.359048 39.974925 37.754933 66.261589 37.795626 L 83.305509 37.821981 L 83.51945 41.538033 C 83.637221 43.581905 83.734664 46.109067 83.735457 47.153711 L 83.737008 49.05282 L 51.695553 49.05282 C 34.072829 49.05282 19.654097 49.15065 19.654097 49.269861 C 19.654097 49.629332 23.631412 57.000292 24.996924 59.171582 L 26.271265 61.197815 L 54.652995 61.325456 C 70.262977 61.395845 83.108733 61.527616 83.199056 61.617944 C 83.289385 61.70827 83.468433 64.175073 83.596965 67.09978 L 83.830542 72.417285 L 57.110209 72.611072 C 42.413994 72.717651 29.965054 72.906805 29.445748 73.031201 C 28.34991 73.293705 27.951789 74.084616 26.957011 77.98077 C 25.256587 84.640674 24.333422 95.757465 24.909591 102.63508 C 25.925866 114.76613 30.778568 127.03977 38.884965 137.98279 C 41.235447 141.15577 47.061824 147.24529 50.869763 150.50916 C 52.323183 151.75492 53.622903 152.77412 53.758476 152.77414 C 54.061339 152.77418 60.367295 146.69637 74.661076 132.62705 C 87.542683 119.94772 95.831324 112.09882 98.302527 110.23927 C 104.08513 105.88793 112.10184 103.08289 119.90689 102.68055 C 130.12339 102.15392 139.94532 105.3743 147.23597 111.64073 C 150.38433 114.34679 154.67241 119.41944 156.57546 122.68967 L 158.00224 125.14223 L 158.55208 123.84619 C 162.57981 114.35114 164.206 105.29852 163.91713 93.976693 C 163.71776 86.162938 162.85577 80.732893 160.82481 74.492611 C 159.32599 69.887387 155.53277 62.173407 152.65735 57.883289 C 140.49107 39.731192 121.33961 28.25135 100.41816 26.569954 C 98.238028 26.394745 77.897474 26.157318 55.216785 26.042338 L 13.978992 25.833049 z M 130.47731 62.763611 C 133.16465 62.76147 133.62225 62.856402 135.24136 63.752181 C 137.27366 64.876562 139.37261 67.312743 139.8788 69.135315 C 140.72097 72.167599 139.92081 76.803283 138.19415 78.898027 C 137.66134 79.544422 136.27271 80.542611 135.10803 81.115979 C 132.87722 82.214204 129.65673 82.671795 127.99994 82.126253 C 124.44356 80.955229 122.33524 78.771957 121.25823 75.145284 C 119.81153 70.273694 121.62568 65.893539 126.06931 63.529456 C 127.26157 62.895149 128.00783 62.765463 130.47731 62.763611 z M 130.96513 63.665881 C 128.18963 63.527696 125.34195 64.759284 123.33872 67.305969 C 120.36863 71.081857 122.28247 78.432949 126.74007 80.370805 C 129.45389 81.550584 131.32099 81.568136 134.02334 80.439018 C 137.47921 78.995059 139.03544 76.493331 139.03544 72.383695 C 139.03544 69.306943 138.75783 68.549422 136.8795 66.499817 C 135.23881 64.709511 133.12385 63.773359 130.96513 63.665881 z M 130.50211 64.932987 C 132.42898 64.932987 135.4811 66.620085 136.69812 68.357585 C 138.77756 71.326416 137.46046 76.992986 134.33237 78.535775 C 130.19981 80.573986 126.8887 79.766525 124.39034 76.1106 C 121.42793 71.775595 125.16939 64.932987 130.50211 64.932987 z " /></g></svg>
