<?xml version="1.0" encoding="UTF-8" standalone="no"?>
<!-- Created with Inkscape (http://www.inkscape.org/) -->

<svg
   width="178mm"
   height="178mm"
   viewBox="0 0 178 178"
   version="1.1"
   id="svg1"
   xml:space="preserve"
   inkscape:version="1.4.2 (2aeb623e1d, 2025-05-12)"
   sodipodi:docname="progress.svg"
   xmlns:inkscape="http://www.inkscape.org/namespaces/inkscape"
   xmlns:sodipodi="http://sodipodi.sourceforge.net/DTD/sodipodi-0.dtd"
   xmlns="http://www.w3.org/2000/svg"
   xmlns:svg="http://www.w3.org/2000/svg"><sodipodi:namedview
     id="namedview1"
     pagecolor="#ffffff"
     bordercolor="#666666"
     borderopacity="1.0"
     inkscape:showpageshadow="2"
     inkscape:pageopacity="0.0"
     inkscape:pagecheckerboard="0"
     inkscape:deskcolor="#d1d1d1"
     inkscape:document-units="mm"
     inkscape:zoom="0.80098407"
     inkscape:cx="332.71573"
     inkscape:cy="369.54542"
     inkscape:window-width="1920"
     inkscape:window-height="1131"
     inkscape:window-x="0"
     inkscape:window-y="32"
     inkscape:window-maximized="1"
     inkscape:current-layer="layer1" /><defs
     id="defs1" /><g
     inkscape:label="Layer 1"
     inkscape:groupmode="layer"
     id="layer1"><path
       style="fill:none;stroke:#000000;stroke-width:1.9807;stroke-dasharray:none;stroke-opacity:1"
       d="M 49.916992,153.23902 C 36.169932,142.9052 25.60415,125.29795 22.829806,108.09987 21.624947,100.63099 22.313225,85.102405 24.161195,78.061723 24.966687,74.99285 25.896603,71.964977 26.227675,71.333137 26.786234,70.267183 28.79445,70.18438 54.085004,70.18438 H 81.340378 L 81.140419,67.066253 80.940429,63.948136 52.695935,63.777187 24.451426,63.606238 21.72381,59.182098 C 18.389564,53.774001 16.114016,48.58952 16.562079,47.421875 16.832746,46.71653 22.972328,46.552363 49.082196,46.552363 h 32.186451 v -3.28222 -3.282231 H 47.505724 c -31.589408,0 -33.784355,-0.07398 -34.098596,-1.148788 -0.809135,-2.767568 -1.72195,-9.199265 -1.72195,-12.132858 v -3.193817 l 47.099997,0.249427 c 50.319355,0.266462 49.403955,0.210139 59.283375,3.64198 24.02608,8.345837 42.78504,29.913172 47.53881,54.655733 1.3894,7.231718 1.39305,20.858361 0.007,28.069351 -1.67187,8.70096 -5.9997,19.7953 -7.71972,19.7893 -0.44395,-0.001 -1.93383,-2.19742 -3.31081,-4.87973 -3.20885,-6.25069 -10.2395,-13.11995 -16.473,-16.09497 -12.18382,-5.81483 -25.57499,-4.87277 -36.62828,2.5767 -3.196318,2.15419 -11.661279,10.114 -25.462256,23.94284 -11.370789,11.3937 -21.01589,20.71584 -21.433578,20.71584 -0.417674,0 -2.519287,-1.32293 -4.670233,-2.93983 z m 25.08335,-19.25241 c 11.209928,-11.1226 21.908916,-21.32174 23.775497,-22.66476 12.975381,-9.33571 29.438491,-10.12861 43.292331,-2.08503 4.61654,2.68036 11.38503,9.84278 13.82746,14.63224 1.14945,2.25398 2.2344,3.8644 2.41096,3.57868 0.17665,-0.28574 1.22182,-2.78702 2.32275,-5.55841 6.21003,-15.63292 6.18291,-36.410277 -0.0675,-51.688744 C 150.84536,46.449702 129.73043,29.580043 105.06563,25.862231 99.935433,25.088936 90.15867,24.896553 55.831193,24.893453 l -42.833097,-0.0056 v 1.84879 c 0,1.831361 1.076657,8.580192 1.720063,10.78188 0.310947,1.064034 2.651146,1.15456 33.934477,1.312903 l 33.600497,0.169948 0.194022,4.431019 0.194021,4.431019 H 50.109007 17.576686 l 2.369994,4.706164 c 1.303497,2.588406 3.116811,5.834698 4.029589,7.214021 l 1.659594,2.50779 28.308624,0.17095 28.308636,0.170938 0.194,4.43102 0.194032,4.431019 H 55.391929 c -25.558257,0 -27.288616,0.07315 -27.881153,1.180418 -3.112085,5.814996 -4.941451,24.32357 -3.37222,34.118428 1.850839,11.55262 6.593294,22.41211 14.208744,32.53579 3.93432,5.23016 14.080334,14.87736 15.646761,14.87753 0.343511,6e-5 9.796327,-9.10023 21.006281,-20.22282 z M 126.74025,80.370717 c -4.4576,-1.937856 -6.37141,-9.289057 -3.40132,-13.064945 3.56129,-4.527441 9.79061,-4.898297 13.54077,-0.80617 1.87833,2.049605 2.15598,2.807429 2.15598,5.884181 0,4.109636 -1.55659,6.611096 -5.01246,8.055055 -2.70235,1.129118 -4.56915,1.111639 -7.28297,-0.06814 z m 7.59219,-1.834694 c 3.12809,-1.542789 4.44529,-7.209846 2.36585,-10.178677 -1.21702,-1.7375 -4.26953,-3.424525 -6.1964,-3.424525 -5.33272,0 -9.07416,6.842622 -6.11175,11.177627 2.49836,3.655925 5.80974,4.463786 9.9423,2.425575 z"
       id="path1" /></g></svg>
