<?xml version="1.0" encoding="UTF-8" standalone="no"?>
<svg
   role="img"
   viewBox="0 0 24 24"
   version="1.1"
   id="svg1"
   sodipodi:docname="python-monochrome.svg"
   inkscape:version="1.4.2 (2aeb623e1d, 2025-05-12)"
   xmlns:inkscape="http://www.inkscape.org/namespaces/inkscape"
   xmlns:sodipodi="http://sodipodi.sourceforge.net/DTD/sodipodi-0.dtd"
   xmlns="http://www.w3.org/2000/svg"
   xmlns:svg="http://www.w3.org/2000/svg">
  <defs
     id="defs1" />
  <sodipodi:namedview
     id="namedview1"
     pagecolor="#ffffff"
     bordercolor="#666666"
     borderopacity="1.0"
     inkscape:showpageshadow="2"
     inkscape:pageopacity="0.0"
     inkscape:pagecheckerboard="0"
     inkscape:deskcolor="#d1d1d1"
     showgrid="false"
     inkscape:zoom="22.2914"
     inkscape:cx="6.3701695"
     inkscape:cy="14.489893"
     inkscape:window-width="1920"
     inkscape:window-height="1131"
     inkscape:window-x="0"
     inkscape:window-y="32"
     inkscape:window-maximized="1"
     inkscape:current-layer="svg1" />
  <title
     id="title1">Python</title>
  <path
     d="m 13.842542,2.3204983 0.737017,0.1637818 0.597803,0.2129162 0.483157,0.2456726 0.368509,0.2620508 0.278428,0.2784289 0.204728,0.278429 0.131025,0.2702399 0.0819,0.2456725 0.03276,0.2129163 0.01637,0.1637817 -0.0082,0.1064581 v 4.3729721 l -0.04095,0.5159126 -0.106458,0.4503992 -0.17197,0.376698 -0.212917,0.311186 -0.245672,0.253861 -0.27024,0.204728 -0.286618,0.155592 -0.286618,0.114647 -0.27024,0.0819 -0.245672,0.05732 -0.212917,0.03276 -0.17197,0.01637 H 9.3549231 l -0.565047,0.04095 -0.4831561,0.114647 -0.4094544,0.18016 -0.3357526,0.221105 -0.2702397,0.262051 -0.2211053,0.286618 -0.1637817,0.294807 -0.1228364,0.302996 -0.081891,0.286618 -0.057324,0.262051 -0.032756,0.221106 -0.016378,0.171971 v 2.50586 H 4.7690347 L 4.5970638,16.831558 4.3677693,16.774235 4.1057187,16.675966 3.8191006,16.528562 3.5242935,16.315647 3.2294864,16.020839 2.9428684,15.644143 2.6808176,15.160986 2.4515232,14.563183 2.2795524,13.842543 2.1649052,12.982689 2.1239598,11.975431 2.1730943,10.976363 2.3041197,10.124698 2.5006578,9.4122471 2.7627085,8.8308221 3.0575156,8.364044 3.3850791,8.0037243 3.7290207,7.7334845 4.0729623,7.5369464 4.4005258,7.4059209 4.6953329,7.3240301 4.9573837,7.2830847 5.1539218,7.2748956 h 0.1310254 l 0.049134,0.00819 H 12.016375 V 6.6033905 H 7.2339497 L 7.2257606,4.3513918 7.2093824,4.0483956 7.2503279,3.7699666 7.3404078,3.516105 7.4796223,3.2868106 7.6843495,3.0738943 7.9382111,2.8855453 8.2493964,2.7217636 8.6097162,2.5743601 9.0273596,2.4515237 l 0.474967,-0.098269 0.5241014,-0.081891 0.581425,-0.049134 0.630559,-0.032756 0.687883,-0.016378 1.040015,0.040946 z M 8.683418,3.9419375 8.495069,4.2121773 8.4295563,4.5479298 8.495069,4.8836824 8.683418,5.1621113 8.9536578,5.3422712 9.2894104,5.415973 9.6251629,5.3422712 9.8954028,5.1621113 10.083752,4.8836824 10.149264,4.5479298 10.083752,4.2121773 9.8954028,3.9419375 9.6251629,3.7617776 9.2894104,3.6880757 8.9536578,3.7617776 Z m 10.719513,3.234689 0.229295,0.049134 0.26205,0.098269 0.286619,0.1474035 0.294807,0.2211054 0.294806,0.2866181 0.286619,0.3848871 0.26205,0.4831561 0.229295,0.5978033 0.17197,0.720639 0.114648,0.851666 0.04095,1.007258 -0.04914,1.007258 -0.131024,0.851664 -0.196539,0.704261 -0.26205,0.581426 -0.294807,0.466778 -0.327564,0.368509 -0.343941,0.270239 -0.343942,0.196539 -0.327563,0.131024 -0.294808,0.0737 -0.262051,0.04095 -0.196538,0.01638 -0.131025,-0.0082 h -6.731429 v 0.671505 h 4.782426 l 0.0082,2.260188 0.01638,0.294807 -0.04095,0.278429 -0.09008,0.253862 -0.139214,0.237483 -0.204727,0.204728 -0.253862,0.196538 -0.311185,0.163781 -0.36032,0.139214 -0.417643,0.122836 -0.474967,0.106459 -0.524101,0.0737 -0.581426,0.05732 -0.63056,0.03276 -0.687883,0.0082 -1.040039,-0.03277 L 10.157453,21.679498 9.4204358,21.515716 8.8226325,21.310988 8.3394764,21.065317 7.9709674,20.795078 7.6925385,20.516647 7.4878114,20.238219 7.3567859,19.96798 7.2748949,19.722307 7.2421389,19.51758 7.2257609,19.353798 7.2339509,19.24734 v -4.372972 l 0.040946,-0.524101 0.1064581,-0.442211 0.1719709,-0.376699 0.2129163,-0.311184 0.2456725,-0.262051 0.2702398,-0.196538 0.2866181,-0.163782 0.286618,-0.114647 0.2702398,-0.08189 0.2456727,-0.04914 0.2129163,-0.03276 0.1719708,-0.01638 0.1064581,-0.0082 h 4.7824247 l 0.565047,-0.04095 0.483156,-0.114648 0.409455,-0.171971 0.335752,-0.229294 0.270239,-0.262051 0.221106,-0.286618 0.163782,-0.294807 0.122836,-0.294808 0.0819,-0.286618 0.05732,-0.26205 0.03276,-0.2292946 0.01638,-0.1719706 V 7.1438702 h 1.711519 l 0.114647,0.00819 z m -5.298339,11.6694475 -0.188348,0.270241 -0.06551,0.335751 0.06551,0.335753 0.188348,0.27024 0.27024,0.188349 0.335753,0.06551 0.335753,-0.06551 0.270239,-0.188349 0.188349,-0.27024 0.06551,-0.335753 -0.06551,-0.335751 -0.188349,-0.270241 -0.270239,-0.188348 -0.335753,-0.06551 -0.335753,0.06551 z"
     id="path1"
     style="stroke-width:0.818909" />
</svg>
